<?xml version="1.0" encoding="UTF-8" standalone="no"?><!DOCTYPE svg PUBLIC "-//W3C//DTD SVG 1.1//EN" "http://www.w3.org/Graphics/SVG/1.1/DTD/svg11.dtd"><svg width="100%" height="100%" viewBox="0 0 1024 1024" version="1.1" xmlns="http://www.w3.org/2000/svg" xmlns:xlink="http://www.w3.org/1999/xlink" xml:space="preserve" xmlns:serif="http://www.serif.com/" style="fill-rule:evenodd;clip-rule:evenodd;stroke-linejoin:round;stroke-miterlimit:2;"><circle cx="512" cy="512" r="512" style="fill:url(#_Linear1);"/><path d="M489.615,328.44c-40.294,0 -75.924,1.866 -106.89,5.596c-30.967,3.731 -58.202,11.566 -81.707,23.505c-23.505,11.939 -44.584,29.288 -63.239,52.046c-18.654,22.758 -35.816,53.165 -51.486,91.22c-1.492,2.985 -3.171,3.918 -5.037,2.798c-1.865,-1.119 -3.544,-3.917 -5.036,-8.394c6.715,-20.147 14.55,-39.734 23.504,-58.762c8.955,-19.027 19.214,-36.562 30.78,-52.605c11.566,-16.043 24.438,-29.661 38.615,-40.853c14.177,-11.193 29.847,-18.282 47.009,-21.266c18.655,-3.731 39.548,-5.41 62.679,-5.037c23.132,0.373 46.263,0.559 69.395,0.559c21.639,0 43.278,0.187 64.917,0.56c21.639,0.373 43.279,0.56 64.918,0.56l48.128,0c59.695,-0.746 107.45,-10.82 143.267,-30.22c11.192,-5.97 22.385,-14.924 33.578,-26.863c11.192,-11.939 16.789,-24.997 16.789,-39.174c0,-3.731 -0.374,-6.343 -1.12,-7.835c-0.746,-0.746 -1.119,-1.866 -1.119,-3.358c0,-2.985 1.119,-4.477 3.358,-4.477c0.746,0 1.865,0.746 3.358,2.239c8.954,9.7 15.669,19.4 20.146,29.1c2.239,2.985 3.358,7.462 3.358,13.432c0,4.477 -1.492,9.7 -4.477,15.669c-12.685,20.893 -31.526,35.817 -56.523,44.771c-24.997,8.954 -55.404,14.178 -91.22,15.67c-12.685,0.746 -26.116,0.933 -40.294,0.56c-14.177,-0.374 -26.862,-0.187 -38.055,0.559c-10.446,0 -18.281,3.731 -23.504,11.193c-41.786,63.425 -80.401,125.358 -115.845,185.798c-35.443,60.441 -67.715,117.15 -96.816,170.129c-6.716,12.685 -12.126,24.437 -16.23,35.257c-4.104,10.819 -6.529,20.706 -7.275,29.66c0,5.97 0.746,11.753 2.239,17.349c1.492,5.596 4.85,10.447 10.073,14.55c5.223,4.104 12.872,7.462 22.945,10.074c10.073,2.612 23.318,3.917 39.734,3.917l13.431,0c5.223,0 9.701,-0.373 13.431,-1.119c2.239,2.985 1.12,5.969 -3.357,8.954c-12.685,1.493 -26.863,2.425 -42.533,2.798c-15.669,0.373 -30.22,0.56 -43.651,0.56c-11.193,0 -21.826,-0.187 -31.899,-0.56c-10.073,-0.373 -19.028,-1.865 -26.862,-4.477c-7.835,-2.611 -14.178,-6.529 -19.028,-11.752c-4.85,-5.223 -7.275,-12.685 -7.275,-22.385c0,-5.97 1.492,-12.685 4.477,-20.147c2.984,-7.462 7.088,-15.297 12.312,-23.505c20.147,-32.832 40.48,-66.41 61,-100.734c20.52,-34.324 40.667,-68.462 60.44,-102.413c19.774,-33.951 38.988,-67.156 57.643,-99.615c18.654,-32.458 35.816,-63.611 51.486,-93.458c3.731,-6.716 1.865,-10.074 -5.597,-10.074l-36.935,0Z" style="fill:#fff;fill-rule:nonzero;"/><defs><linearGradient id="_Linear1" x1="0" y1="0" x2="1" y2="0" gradientUnits="userSpaceOnUse" gradientTransform="matrix(723.935,-723.935,723.935,723.935,150.032,873.968)"><stop offset="0" style="stop-color:#5c00ff;stop-opacity:1"/><stop offset="1" style="stop-color:#00ffec;stop-opacity:1"/></linearGradient></defs></svg>